Results
version=1
nRows=22
nColumns=24
inDegrees=yes
endheader
time	pelvis_tilt	pelvis_list	pelvis_rotation	pelvis_tx	pelvis_ty	pelvis_tz	hip_flexion_r	hip_adduction_r	hip_rotation_r	knee_angle_r	ankle_angle_r	subtalar_angle_r	mtp_angle_r	hip_flexion_l	hip_adduction_l	hip_rotation_l	knee_angle_l	ankle_angle_l	subtalar_angle_l	mtp_angle_l	lumbar_extension	lumbar_bending	lumbar_rotation
      1.32316667	     -1.55579378	     -2.35751389	     -5.14952208	      0.91146132	      0.97170875	      0.32763698	    -18.55158913	      2.93757976	      0.74293151	     -7.02389168	     16.30473406	      0.16277791	      3.41640582	     26.13953218	     -4.43288889	     -3.63043611	      7.03931030	      3.12333791	      2.09099254	      1.18437940	    -12.69243321	      7.40094358	     10.31926392
      1.32733333	     -1.51349993	     -2.24852615	     -5.17708925	      0.91744069	      0.97102828	      0.32722351	    -18.82712670	      2.73425615	      0.62325349	     -7.25994080	     16.21995103	      0.37843577	      3.61086729	     26.11682995	     -4.29742000	     -3.26043546	      6.65305543	      3.05597462	      1.77317422	      1.18827694	    -12.69494863	      7.21080468	     10.40351989
      1.33150000	     -1.52397823	     -2.13215101	     -5.22314555	      0.92344219	      0.97032446	      0.32685303	    -19.03848389	      2.53123233	      0.59835190	     -7.50843924	     16.06656320	      0.39043907	      3.67876644	     26.16929460	     -4.16401595	     -2.99719517	      6.17247721	      3.07355601	      1.63350371	      1.19629394	    -12.62070760	      7.01891473	     10.41452212
      1.33566667	     -1.51293108	     -1.99922014	     -5.25270086	      0.92950619	      0.96965013	      0.32640993	    -19.27342911	      2.30670563	      0.51692576	     -7.75520635	     15.92053079	      0.51720490	      3.91710189	     26.16703629	     -3.99980174	     -2.58717341	      5.73200344	      2.90706484	      1.19472951	      1.21741521	    -12.60265504	      6.82879730	     10.48557937
      1.33983333	     -1.52276013	     -1.85864815	     -5.30256338	      0.93559507	      0.96899863	      0.32600154	    -19.46649533	      2.07548778	      0.48052891	     -8.03811771	     15.71398272	      0.49560816	      3.98150088	     26.21606869	     -3.83279417	     -2.36399235	      5.18371990	      2.84243841	      1.01479104	      1.22646167	    -12.52908467	      6.62578715	     10.48908408
      1.34400000	     -1.51220247	     -1.71749879	     -5.33207365	      0.94174104	      0.96837367	      0.32554775	    -19.68956038	      1.84470193	      0.41353130	     -8.30625704	     15.53063120	      0.59466696	      4.30089956	     26.17971478	     -3.65269261	     -1.87821515	      4.75668744	      2.46651041	      0.34999257	      1.26878275	    -12.48450194	      6.40231710	     10.56422565
      1.34816667	     -1.52351394	     -1.55833323	     -5.36518217	      0.94793791	      0.96775288	      0.32508486	    -19.87797659	      1.59818346	      0.35411305	     -8.59517620	     15.28808147	      0.60349916	      4.70891413	     26.18501790	     -3.45176292	     -1.49035491	      4.26201302	      2.11191962	     -0.17647798	      1.33773656	    -12.40179267	      6.17561846	     10.58344675
      1.35233333	     -1.53550497	     -1.38473428	     -5.40283711	      0.95417252	      0.96716362	      0.32461366	    -20.05179649	      1.33519009	      0.28883705	     -8.90675438	     15.01895382	      0.59496765	      5.18513296	     26.18641158	     -3.23266648	     -1.13407428	      3.75722838	      1.71471901	     -0.70848446	      1.43060960	    -12.31566478	      5.92547590	     10.62000307
      1.35650000	     -1.58176560	     -1.17509479	     -5.43443373	      0.96048312	      0.96656294	      0.32413662	    -20.19102270	      1.04354994	      0.23804968	     -9.21120679	     14.70339257	      0.54249518	      5.40931792	     26.23722484	     -2.97429854	     -0.87642025	      3.20877184	      1.35117016	     -1.02993752	      1.47432198	    -12.18416235	      5.62406964	     10.61655778
      1.36066667	     -1.58549936	     -0.99922933	     -5.47063785	      0.96677547	      0.96603778	      0.32360991	    -20.34791024	      0.77603140	      0.15257111	     -9.57184815	     14.40138211	      0.52390525	      5.87817011	     26.20878438	     -2.73863864	     -0.44913219	      2.72772081	      0.72333171	     -1.87583611	      1.56979951	    -12.09964289	      5.39880857	     10.67295020
      1.36483333	     -1.62231203	     -0.78688482	     -5.50574531	      0.97312020	      0.96550635	      0.32308141	    -20.45274555	      0.47627741	      0.06291214	     -9.95891053	     14.03033340	      0.46791900	      6.50682447	     26.21444449	     -2.46639950	     -0.06888764	      2.24137601	      0.07658006	     -2.58229495	      1.70647908	    -11.98390082	      5.11364419	     10.68201356
      1.36900000	     -1.59079412	     -0.53442710	     -5.51225609	      0.97958331	      0.96509553	      0.32251330	    -20.66735645	      0.13503107	     -0.08818860	    -10.25051791	     13.49485137	      0.38177781	     12.53458685	     26.16903168	     -2.13106583	      0.15299591	      1.70947719	     -0.58553265	     -3.12080202	      3.17732753	    -11.91625513	      4.81440330	     10.46598289
      1.37316667	     -1.71754457	     -0.31322478	     -5.56342142	      0.98597319	      0.96452291	      0.32199365	    -20.64381864	     -0.16360087	     -0.11620818	    -10.69508038	     13.13015288	      0.20982258	     12.62702752	     26.29968785	     -1.85773743	      0.41120504	      1.15360844	     -1.31804937	     -3.77154811	      3.16135607	    -11.67341750	      4.49213740	     10.71706178
      1.37733333	     -1.76880346	     -0.05244142	     -5.58814283	      0.99244230	      0.96407797	      0.32142274	    -20.70690993	     -0.50527091	     -0.22207908	    -11.12122574	     12.69323422	      0.11383431	     12.78515027	     26.32994537	     -1.52215459	      0.70098559	      0.64059044	     -2.13113176	     -4.51831840	      3.15950145	    -11.51381495	      4.15654103	     10.71164156
      1.38150000	     -1.82908124	      0.21626055	     -5.60857651	      0.99893128	      0.96366328	      0.32082527	    -20.73776294	     -0.85348380	     -0.34261813	    -11.58601753	     12.19781924	     -0.00040012	     13.03373395	     26.37027926	     -1.17455043	      0.99398890	      0.12543152	     -2.96834615	     -5.26329041	      3.17788649	    -11.34539262	      3.81116210	     10.71663198
      1.38566667	     -1.89919515	      0.49906982	     -5.62395220	      1.00544293	      0.96327047	      0.32022786	    -20.74967180	     -1.20996857	     -0.45553851	    -12.06233262	     11.70095145	     -0.13975644	     13.33504014	     26.44039336	     -0.80997349	      1.22154589	     -0.42941395	     -3.83407662	     -6.01638611	      3.20197400	    -11.14974324	      3.45340158	     10.71107535
      1.38983333	     -1.97521377	      0.80022854	     -5.64933894	      1.01198894	      0.96291683	      0.31962407	    -20.73182345	     -1.58922534	     -0.57202955	    -12.57569441	     11.16405593	     -0.28984529	     13.69407666	     26.51177071	     -0.42972149	      1.43538796	     -0.97679106	     -4.70906921	     -6.76312868	      3.22264241	    -10.95014769	      3.07379002	     10.71646807
      1.39400000	     -2.05201891	      1.11491006	     -5.65793985	      1.01856250	      0.96260093	      0.31899091	    -20.69570889	     -1.97603155	     -0.71226289	    -13.12024402	     10.57435274	     -0.45503085	     14.14897944	     26.59060104	     -0.02745355	      1.63864287	     -1.53953496	     -5.57792208	     -7.50896620	      3.24931871	    -10.74363474	      2.67965998	     10.70580151
      1.39816667	     -2.11724389	      1.45766673	     -5.65952802	      1.02517385	      0.96233786	      0.31833528	    -20.66009313	     -2.39513422	     -0.89343453	    -13.66518019	      9.85500487	     -0.66964185	     20.37844575	     26.67255974	      0.40744810	      1.77860367	     -2.13784094	     -6.38874636	     -8.12683763	      3.69343533	    -10.55073657	      2.26111174	     10.64700411
      1.40233333	     -2.19925783	      1.79459868	     -5.67535130	      1.03175901	      0.96210097	      0.31770288	    -20.57587042	     -2.80232727	     -1.00147993	    -14.27551761	      9.21277045	     -0.91634031	     20.44244800	     26.78611605	      0.82873469	      1.90850556	     -2.76785845	     -7.17986462	     -8.80393358	      3.66439665	    -10.33924238	      1.83418426	     10.67477808
      1.40650000	     -2.27690245	      2.15208412	     -5.68000513	      1.03834951	      0.96191496	      0.31704473	    -20.46992086	     -3.23028814	     -1.14594063	    -14.93056803	      8.53924510	     -1.12177917	     20.56972231	     26.89499532	      1.27725564	      2.03191443	     -3.40697023	     -7.92933209	     -9.46412174	      3.62798441	    -10.12865296	      1.39081881	     10.65664919
      1.41066667	     -2.34386109	      2.51964744	     -5.67282249	      1.04498779	      0.96176953	      0.31634380	    -20.36282701	     -3.66946675	     -1.31169553	    -15.60582669	      7.79267826	     -1.30862605	     20.84669994	     26.99910837	      1.74635293	      2.20361106	     -4.06679005	     -8.57237564	    -10.15881379	      3.57117885	     -9.92929346	      0.93186701	     10.64175681
